HIERARCHY
ROOT joint_0
{
	OFFSET 0.000000 0.000000 0.000000
	CHANNELS 6 Xposition Yposition Zposition Zrotation Yrotation Xrotation 
	JOINT joint_1
	{
		OFFSET 0.511002 1.944000 108.288940
		CHANNELS 3 Zrotation Yrotation Xrotation
		JOINT joint_2
		{
			OFFSET -9.074005 1.512993 98.440063
			CHANNELS 3 Zrotation Yrotation Xrotation
			JOINT joint_3
			{
				OFFSET -8.590996 1.815002 98.366943
				CHANNELS 3 Zrotation Yrotation Xrotation
				JOINT joint_4
				{
					OFFSET 2.489998 3.531998 136.462036
					CHANNELS 3 Zrotation Yrotation Xrotation
					JOINT joint_5
					{
						OFFSET 22.708000 2.955002 80.357056
						CHANNELS 3 Zrotation Yrotation Xrotation
						End Site
						{
							OFFSET 0.000000 0.000000 0.000000
						}
					}
				}
				JOINT joint_6
				{
					OFFSET 2.860001 -27.684998 77.234009
					CHANNELS 3 Zrotation Yrotation Xrotation
					JOINT joint_7
					{
						OFFSET 5.449997 -131.244003 -18.851929
						CHANNELS 3 Zrotation Yrotation Xrotation
						JOINT joint_8
						{
							OFFSET 35.757000 -24.661995 -264.074097
							CHANNELS 3 Zrotation Yrotation Xrotation
							JOINT joint_9
							{
								OFFSET 49.392001 -1.747002 -239.960938
								CHANNELS 3 Zrotation Yrotation Xrotation
								End Site
								{
									OFFSET 0.000000 0.000000 0.000000
								}
							}
						}
					}
				}
				JOINT joint_10
				{
					OFFSET -0.127998 31.625000 75.753052
					CHANNELS 3 Zrotation Yrotation Xrotation
					JOINT joint_11
					{
						OFFSET -5.618004 131.132996 -19.557007
						CHANNELS 3 Zrotation Yrotation Xrotation
						JOINT joint_12
						{
							OFFSET 46.488998 30.127991 -261.826050
							CHANNELS 3 Zrotation Yrotation Xrotation
							JOINT joint_13
							{
								OFFSET 66.021003 0.474030 -235.934937
								CHANNELS 3 Zrotation Yrotation Xrotation
								End Site
								{
									OFFSET 0.000000 0.000000 0.000000
								}
							}
						}
					}
				}
			}
		}
	}
	JOINT joint_14
	{
		OFFSET 15.887001 -78.871004 -94.561035
		CHANNELS 3 Zrotation Yrotation Xrotation
		JOINT joint_15
		{
			OFFSET -4.133003 6.714001 -473.615967
			CHANNELS 3 Zrotation Yrotation Xrotation
			JOINT joint_16
			{
				OFFSET -19.541000 5.340000 -399.613007
				CHANNELS 3 Zrotation Yrotation Xrotation
				JOINT joint_17
				{
					OFFSET 164.317001 41.657999 -73.195000
					CHANNELS 3 Zrotation Yrotation Xrotation
					End Site
					{
						OFFSET 0.000000 0.000000 0.000000
					}
				}
			}
		}
	}
	JOINT joint_18
	{
		OFFSET 6.513000 77.960991 -96.406982
		CHANNELS 3 Zrotation Yrotation Xrotation
		JOINT joint_19
		{
			OFFSET -10.660004 -8.518997 -473.485016
			CHANNELS 3 Zrotation Yrotation Xrotation
			JOINT joint_20
			{
				OFFSET -36.967995 -11.098999 -398.260010
				CHANNELS 3 Zrotation Yrotation Xrotation
				JOINT joint_21
				{
					OFFSET 166.067997 30.363998 -74.785000
					CHANNELS 3 Zrotation Yrotation Xrotation
					End Site
					{
						OFFSET 0.000000 0.000000 0.000000
					}
				}
			}
		}
	}
}
MOTION
Frames: 9
Frame Time: 0.016667
4.890000 101.715000 1073.843990 2.449069 1.707106 1.300800 0.894476 -0.292067 0.491019 0.849856 0.009392 -0.091307 0.861266 -0.001826 0.023175 -0.068514 -1.046373 0.367784 0.000000 0.000000 0.000000 2.499916 -0.198725 -0.403866 -0.975962 0.183155 -3.226308 -0.558872 -3.434179 -2.733957 0.000000 0.000000 0.000000 -0.168971 0.195367 -0.931306 0.118322 0.232902 -1.051998 0.858869 0.190660 3.123871 0.000000 0.000000 0.000000 -1.647084 -1.756212 -2.632968 -1.428423 14.863701 -2.000004 -1.792315 -3.047996 0.002366 0.000000 0.000000 0.000000 -1.708180 -2.671366 -0.472436 -1.930817 12.340535 -1.699629 -1.707406 -0.037644 -0.741938 0.000000 0.000000 0.000000 
7.631000 102.548000 1074.296020 2.470864 1.591870 1.340811 0.833222 -0.036033 0.510441 0.789206 -0.031660 -0.095747 0.799133 0.060724 0.026348 -0.078296 -0.978849 0.394586 0.000000 0.000000 0.000000 2.510400 -0.355676 -0.325006 -1.009603 0.023884 -3.358173 -0.596131 -3.607614 -2.906972 0.000000 0.000000 0.000000 -0.220531 -0.029533 -0.966372 0.089386 0.004978 -1.235938 0.991123 0.333915 3.611649 0.000000 0.000000 0.000000 -1.505496 -2.663256 -2.668844 -1.226920 17.170291 -2.274121 -1.609934 -2.982636 0.067869 0.000000 0.000000 0.000000 -1.671832 -2.705164 -0.565285 -1.899640 12.919853 -1.744623 -1.660177 0.147558 -0.753297 0.000000 0.000000 0.000000 
10.136000 103.338000 1074.790040 2.467233 1.484115 1.366738 0.773050 0.256761 0.521424 0.728008 -0.073191 -0.091179 0.735511 0.130891 0.034221 -0.092171 -0.943100 0.439455 0.000000 0.000000 0.000000 2.522296 -0.511608 -0.244167 -1.039298 -0.135068 -3.503321 -0.610407 -3.809625 -2.973233 0.000000 0.000000 0.000000 -0.279276 -0.266158 -0.998085 0.060149 -0.233137 -1.403617 1.107495 0.442365 4.041648 0.000000 0.000000 0.000000 -1.337333 -3.807538 -2.682686 -0.975525 19.850719 -2.567750 -1.350893 -2.745276 0.121776 0.000000 0.000000 0.000000 -1.633794 -2.799363 -0.633624 -1.863814 13.572580 -1.804969 -1.605135 0.356396 -0.765374 0.000000 0.000000 0.000000 
12.485000 104.088000 1075.233030 2.392191 1.342346 1.349147 0.728152 0.640036 0.600218 0.667383 -0.125194 -0.123072 0.675781 0.208828 0.048582 -0.114618 -0.920752 0.515986 0.000000 0.000000 0.000000 2.526976 -0.681410 -0.187535 -1.060659 -0.307825 -3.625461 -0.612453 -4.020865 -2.982896 0.000000 0.000000 0.000000 -0.351629 -0.493767 -1.009296 0.032613 -0.458350 -1.512520 1.172652 0.489805 4.279006 0.000000 0.000000 0.000000 -1.168683 -5.192738 -2.684009 -0.690514 22.991819 -2.757819 -1.017924 -2.396835 0.176794 0.000000 0.000000 0.000000 -1.599708 -2.874418 -0.631198 -1.823362 14.262573 -1.908882 -1.545760 0.527544 -0.768472 0.000000 0.000000 0.000000 
14.633000 104.851000 1075.635010 2.217350 1.149595 1.296282 0.708168 1.138419 0.726131 0.610426 -0.182164 -0.179709 0.621902 0.298773 0.072229 -0.149881 -0.912186 0.638989 0.000000 0.000000 0.000000 2.517776 -0.876983 -0.171501 -1.070993 -0.506577 -3.718254 -0.601333 -4.239268 -2.931551 0.000000 0.000000 0.000000 -0.438762 -0.709408 -0.989817 0.005857 -0.668083 -1.562505 1.172913 0.448471 4.271609 0.000000 0.000000 0.000000 -0.984413 -6.910829 -2.707042 -0.330938 26.806149 -2.778991 -0.529538 -1.686299 0.200885 0.000000 0.000000 0.000000 -1.576499 -2.916898 -0.552422 -1.780524 14.996794 -2.090856 -1.486834 0.666002 -0.765468 0.000000 0.000000 0.000000 
16.625000 105.574000 1075.985960 1.981903 0.934593 1.266113 0.706934 1.703306 0.779629 0.551129 -0.235325 -0.201220 0.561105 0.392832 0.102388 -0.193849 -0.914825 0.793447 0.000000 0.000000 0.000000 2.499395 -1.086272 -0.178421 -1.072095 -0.719288 -3.786300 -0.577904 -4.463939 -2.822863 0.000000 0.000000 0.000000 -0.538260 -0.913799 -0.938528 -0.020187 -0.863779 -1.561722 1.121948 0.339242 4.073175 0.000000 0.000000 0.000000 -0.841593 -8.863873 -2.781177 0.061598 30.967922 -2.693754 0.087775 -0.597061 0.173736 0.000000 0.000000 0.000000 -1.562184 -2.954448 -0.479591 -1.736455 15.757784 -2.307797 -1.424311 0.805667 -0.760925 0.000000 0.000000 0.000000 
18.678000 106.105000 1076.171020 1.712813 0.727974 1.273630 0.726225 2.269854 0.752875 0.486892 -0.288703 -0.191132 0.489426 0.483285 0.126764 -0.239859 -0.914907 0.954183 0.000000 0.000000 0.000000 2.477493 -1.290065 -0.179132 -1.066675 -0.926329 -3.814322 -0.555033 -4.679483 -2.717390 0.000000 0.000000 0.000000 -0.658509 -1.094504 -0.853196 -0.041967 -1.029901 -1.478348 1.025466 0.207060 3.708581 0.000000 0.000000 0.000000 -0.845039 -10.802702 -2.857820 0.360825 34.864128 -2.632388 0.599423 0.258974 0.153936 0.000000 0.000000 0.000000 -1.538426 -2.969682 -0.462575 -1.681882 16.477173 -2.477896 -1.343522 0.911808 -0.742620 0.000000 0.000000 0.000000 
20.799000 106.429000 1076.048950 1.376129 0.529430 1.299683 0.785530 2.828820 0.696839 0.421388 -0.333963 -0.183874 0.413511 0.561318 0.134233 -0.288373 -0.910529 1.122583 0.000000 0.000000 0.000000 2.458662 -1.483861 -0.178141 -1.053704 -1.120987 -3.772631 -0.537728 -4.894230 -2.639068 0.000000 0.000000 0.000000 -0.822302 -1.236265 -0.706611 -0.056608 -1.147051 -1.279622 0.859448 0.016138 3.094754 0.000000 0.000000 0.000000 -1.010224 -12.790361 -2.853149 0.569972 38.766926 -2.692481 0.920262 0.449209 0.221721 0.000000 0.000000 0.000000 -1.490666 -2.945564 -0.497085 -1.604075 17.148248 -2.574333 -1.225955 0.908766 -0.688929 0.000000 0.000000 0.000000 
22.980000 106.560000 1075.760010 1.002410 0.339258 1.355253 0.876767 3.389700 0.577324 0.345439 -0.378471 -0.154296 0.321049 0.632502 0.136574 -0.339042 -0.898470 1.297068 0.000000 0.000000 0.000000 2.437138 -1.670580 -0.169584 -1.034039 -1.308530 -3.692489 -0.520540 -5.098709 -2.563218 0.000000 0.000000 0.000000 -1.005897 -1.349263 -0.527665 -0.066387 -1.229306 -0.995890 0.645918 -0.217283 2.317912 0.000000 0.000000 0.000000 -1.295137 -14.777802 -2.804189 0.715649 42.474748 -2.836825 1.037407 0.265808 0.306094 0.000000 0.000000 0.000000 -1.427596 -2.899683 -0.577312 -1.516764 17.782656 -2.626791 -1.090729 0.861160 -0.620200 0.000000 0.000000 0.000000 
